<mxfile host="Electron" modified="2023-12-11T06:51:38.439Z" agent="Mozilla/5.0 (Windows NT 10.0; Win64; x64) AppleWebKit/537.36 (KHTML, like Gecko) draw.io/22.1.2 Chrome/114.0.5735.289 Electron/25.9.4 Safari/537.36" etag="TKxrEs1zB7-b-8QCmlOA" version="22.1.2" type="device">
  <diagram name="第 1 页" id="4qLuklAeGFxvdv6u6yow">
    <mxGraphModel dx="747" dy="519" grid="1" gridSize="10" guides="1" tooltips="1" connect="1" arrows="1" fold="1" page="1" pageScale="1" pageWidth="10000" pageHeight="10000" math="0" shadow="0">
      <root>
        <mxCell id="0" />
        <mxCell id="1" parent="0" />
        <mxCell id="IptE70Cl41YrFZPhkl_w-20" style="rounded=0;orthogonalLoop=1;jettySize=auto;html=1;exitX=1;exitY=0.5;exitDx=0;exitDy=0;strokeWidth=3;fillColor=#a20025;strokeColor=#6F0000;fontStyle=1;fontFamily=Comic Sans MS;" parent="1" source="IptE70Cl41YrFZPhkl_w-2" edge="1">
          <mxGeometry relative="1" as="geometry">
            <mxPoint x="880" y="1440" as="targetPoint" />
            <Array as="points">
              <mxPoint x="450" y="1270" />
              <mxPoint x="630" y="1260" />
            </Array>
          </mxGeometry>
        </mxCell>
        <mxCell id="IptE70Cl41YrFZPhkl_w-22" value="1" style="edgeLabel;html=1;align=center;verticalAlign=middle;resizable=0;points=[];fontStyle=1;fontFamily=Comic Sans MS;fontSize=20;" parent="IptE70Cl41YrFZPhkl_w-20" vertex="1" connectable="0">
          <mxGeometry x="-0.0699" y="1" relative="1" as="geometry">
            <mxPoint x="64" y="40" as="offset" />
          </mxGeometry>
        </mxCell>
        <mxCell id="IptE70Cl41YrFZPhkl_w-2" value="" style="rounded=1;whiteSpace=wrap;html=1;strokeWidth=3;fontStyle=1;fontFamily=Comic Sans MS;" parent="1" vertex="1">
          <mxGeometry x="280" y="1320" width="80" height="40" as="geometry" />
        </mxCell>
        <mxCell id="IptE70Cl41YrFZPhkl_w-21" style="rounded=0;orthogonalLoop=1;jettySize=auto;html=1;exitX=0;exitY=0;exitDx=0;exitDy=0;strokeWidth=3;fillColor=#a20025;strokeColor=#6F0000;fontStyle=1;fontFamily=Comic Sans MS;" parent="1" source="IptE70Cl41YrFZPhkl_w-3" edge="1">
          <mxGeometry relative="1" as="geometry">
            <mxPoint x="600" y="1440" as="targetPoint" />
            <Array as="points">
              <mxPoint x="260" y="1210" />
              <mxPoint x="450" y="1190" />
            </Array>
          </mxGeometry>
        </mxCell>
        <mxCell id="IptE70Cl41YrFZPhkl_w-23" value="2" style="edgeLabel;html=1;align=center;verticalAlign=middle;resizable=0;points=[];fontStyle=1;fontFamily=Comic Sans MS;fontSize=20;" parent="IptE70Cl41YrFZPhkl_w-21" vertex="1" connectable="0">
          <mxGeometry x="0.5686" y="3" relative="1" as="geometry">
            <mxPoint as="offset" />
          </mxGeometry>
        </mxCell>
        <mxCell id="IptE70Cl41YrFZPhkl_w-3" value="" style="rounded=1;whiteSpace=wrap;html=1;strokeWidth=3;fontStyle=1;fontFamily=Comic Sans MS;" parent="1" vertex="1">
          <mxGeometry x="240" y="1360" width="160" height="40" as="geometry" />
        </mxCell>
        <mxCell id="IptE70Cl41YrFZPhkl_w-4" value="" style="rounded=1;whiteSpace=wrap;html=1;strokeWidth=3;fontStyle=1;fontFamily=Comic Sans MS;" parent="1" vertex="1">
          <mxGeometry x="200" y="1400" width="240" height="40" as="geometry" />
        </mxCell>
        <mxCell id="IptE70Cl41YrFZPhkl_w-5" value="" style="endArrow=none;html=1;rounded=0;strokeWidth=3;fontStyle=1;fontFamily=Comic Sans MS;" parent="1" edge="1">
          <mxGeometry width="50" height="50" relative="1" as="geometry">
            <mxPoint x="320" y="1440" as="sourcePoint" />
            <mxPoint x="320" y="1240" as="targetPoint" />
          </mxGeometry>
        </mxCell>
        <mxCell id="IptE70Cl41YrFZPhkl_w-9" value="" style="endArrow=none;html=1;rounded=0;strokeWidth=3;fontStyle=1;fontFamily=Comic Sans MS;" parent="1" edge="1">
          <mxGeometry width="50" height="50" relative="1" as="geometry">
            <mxPoint x="600" y="1440" as="sourcePoint" />
            <mxPoint x="600" y="1240" as="targetPoint" />
          </mxGeometry>
        </mxCell>
        <mxCell id="IptE70Cl41YrFZPhkl_w-13" value="" style="endArrow=none;html=1;rounded=0;strokeWidth=3;fontStyle=1;fontFamily=Comic Sans MS;" parent="1" edge="1">
          <mxGeometry width="50" height="50" relative="1" as="geometry">
            <mxPoint x="880" y="1440" as="sourcePoint" />
            <mxPoint x="880" y="1240" as="targetPoint" />
          </mxGeometry>
        </mxCell>
        <mxCell id="IptE70Cl41YrFZPhkl_w-24" style="rounded=0;orthogonalLoop=1;jettySize=auto;html=1;strokeWidth=3;fillColor=#a20025;strokeColor=#6F0000;exitX=0.25;exitY=0;exitDx=0;exitDy=0;entryX=0.75;entryY=0;entryDx=0;entryDy=0;fontStyle=1;fontFamily=Comic Sans MS;" parent="1" source="IptE70Cl41YrFZPhkl_w-14" target="IptE70Cl41YrFZPhkl_w-15" edge="1">
          <mxGeometry relative="1" as="geometry">
            <mxPoint x="710" y="1720" as="targetPoint" />
            <mxPoint x="760" y="1640" as="sourcePoint" />
            <Array as="points">
              <mxPoint x="800" y="1550" />
              <mxPoint x="700" y="1540" />
            </Array>
          </mxGeometry>
        </mxCell>
        <mxCell id="IptE70Cl41YrFZPhkl_w-25" value="3" style="edgeLabel;html=1;align=center;verticalAlign=middle;resizable=0;points=[];fontFamily=Comic Sans MS;fontStyle=1;fontSize=20;" parent="IptE70Cl41YrFZPhkl_w-24" vertex="1" connectable="0">
          <mxGeometry x="-0.0272" y="5" relative="1" as="geometry">
            <mxPoint as="offset" />
          </mxGeometry>
        </mxCell>
        <mxCell id="IptE70Cl41YrFZPhkl_w-14" value="" style="rounded=1;whiteSpace=wrap;html=1;strokeWidth=3;fontStyle=1;fontFamily=Comic Sans MS;" parent="1" vertex="1">
          <mxGeometry x="840" y="1640" width="80" height="40" as="geometry" />
        </mxCell>
        <mxCell id="IptE70Cl41YrFZPhkl_w-15" value="" style="rounded=1;whiteSpace=wrap;html=1;strokeWidth=3;fontStyle=1;fontFamily=Comic Sans MS;" parent="1" vertex="1">
          <mxGeometry x="520" y="1640" width="160" height="40" as="geometry" />
        </mxCell>
        <mxCell id="IptE70Cl41YrFZPhkl_w-16" value="" style="rounded=1;whiteSpace=wrap;html=1;strokeWidth=3;fontStyle=1;fontFamily=Comic Sans MS;" parent="1" vertex="1">
          <mxGeometry x="200" y="1640" width="240" height="40" as="geometry" />
        </mxCell>
        <mxCell id="IptE70Cl41YrFZPhkl_w-17" value="" style="endArrow=none;html=1;rounded=0;strokeWidth=3;fontStyle=1;fontFamily=Comic Sans MS;" parent="1" edge="1">
          <mxGeometry width="50" height="50" relative="1" as="geometry">
            <mxPoint x="320" y="1680" as="sourcePoint" />
            <mxPoint x="320" y="1480" as="targetPoint" />
          </mxGeometry>
        </mxCell>
        <mxCell id="IptE70Cl41YrFZPhkl_w-18" value="" style="endArrow=none;html=1;rounded=0;strokeWidth=3;fontStyle=1;fontFamily=Comic Sans MS;" parent="1" edge="1">
          <mxGeometry width="50" height="50" relative="1" as="geometry">
            <mxPoint x="600" y="1680" as="sourcePoint" />
            <mxPoint x="600" y="1480" as="targetPoint" />
          </mxGeometry>
        </mxCell>
        <mxCell id="IptE70Cl41YrFZPhkl_w-19" value="" style="endArrow=none;html=1;rounded=0;strokeWidth=3;fontStyle=1;fontFamily=Comic Sans MS;" parent="1" edge="1">
          <mxGeometry width="50" height="50" relative="1" as="geometry">
            <mxPoint x="880" y="1680" as="sourcePoint" />
            <mxPoint x="880" y="1480" as="targetPoint" />
          </mxGeometry>
        </mxCell>
        <mxCell id="IptE70Cl41YrFZPhkl_w-32" style="rounded=0;orthogonalLoop=1;jettySize=auto;html=1;strokeWidth=3;fillColor=#a20025;strokeColor=#6F0000;exitX=0.75;exitY=0;exitDx=0;exitDy=0;fontStyle=1;fontFamily=Comic Sans MS;" parent="1" source="IptE70Cl41YrFZPhkl_w-36" edge="1">
          <mxGeometry relative="1" as="geometry">
            <mxPoint x="880" y="1920" as="targetPoint" />
            <Array as="points">
              <mxPoint x="420" y="1770" />
              <mxPoint x="780" y="1800" />
            </Array>
            <mxPoint x="680" y="1910" as="sourcePoint" />
          </mxGeometry>
        </mxCell>
        <mxCell id="IptE70Cl41YrFZPhkl_w-33" value="4" style="edgeLabel;html=1;align=center;verticalAlign=middle;resizable=0;points=[];fontFamily=Comic Sans MS;fontStyle=1;fontSize=20;" parent="IptE70Cl41YrFZPhkl_w-32" vertex="1" connectable="0">
          <mxGeometry x="-0.0272" y="5" relative="1" as="geometry">
            <mxPoint x="39" y="9" as="offset" />
          </mxGeometry>
        </mxCell>
        <mxCell id="IptE70Cl41YrFZPhkl_w-34" value="" style="rounded=1;whiteSpace=wrap;html=1;strokeWidth=3;fontStyle=1;fontFamily=Comic Sans MS;" parent="1" vertex="1">
          <mxGeometry x="560" y="1840" width="80" height="40" as="geometry" />
        </mxCell>
        <mxCell id="IptE70Cl41YrFZPhkl_w-35" value="" style="rounded=1;whiteSpace=wrap;html=1;strokeWidth=3;fontStyle=1;fontFamily=Comic Sans MS;" parent="1" vertex="1">
          <mxGeometry x="520" y="1880" width="160" height="40" as="geometry" />
        </mxCell>
        <mxCell id="IptE70Cl41YrFZPhkl_w-36" value="" style="rounded=1;whiteSpace=wrap;html=1;strokeWidth=3;fontStyle=1;fontFamily=Comic Sans MS;" parent="1" vertex="1">
          <mxGeometry x="200" y="1880" width="240" height="40" as="geometry" />
        </mxCell>
        <mxCell id="IptE70Cl41YrFZPhkl_w-37" value="" style="endArrow=none;html=1;rounded=0;strokeWidth=3;fontStyle=1;fontFamily=Comic Sans MS;" parent="1" edge="1">
          <mxGeometry width="50" height="50" relative="1" as="geometry">
            <mxPoint x="320" y="1920" as="sourcePoint" />
            <mxPoint x="320" y="1720" as="targetPoint" />
          </mxGeometry>
        </mxCell>
        <mxCell id="IptE70Cl41YrFZPhkl_w-38" value="" style="endArrow=none;html=1;rounded=0;strokeWidth=3;fontStyle=1;fontFamily=Comic Sans MS;" parent="1" edge="1">
          <mxGeometry width="50" height="50" relative="1" as="geometry">
            <mxPoint x="600" y="1920" as="sourcePoint" />
            <mxPoint x="600" y="1720" as="targetPoint" />
          </mxGeometry>
        </mxCell>
        <mxCell id="IptE70Cl41YrFZPhkl_w-39" value="" style="endArrow=none;html=1;rounded=0;strokeWidth=3;fontStyle=1;fontFamily=Comic Sans MS;" parent="1" edge="1">
          <mxGeometry width="50" height="50" relative="1" as="geometry">
            <mxPoint x="880" y="1920" as="sourcePoint" />
            <mxPoint x="880" y="1720" as="targetPoint" />
          </mxGeometry>
        </mxCell>
        <mxCell id="IptE70Cl41YrFZPhkl_w-40" style="rounded=0;orthogonalLoop=1;jettySize=auto;html=1;strokeWidth=3;fillColor=#a20025;strokeColor=#6F0000;exitX=0;exitY=0.5;exitDx=0;exitDy=0;fontStyle=1;fontFamily=Comic Sans MS;" parent="1" source="IptE70Cl41YrFZPhkl_w-42" edge="1">
          <mxGeometry relative="1" as="geometry">
            <mxPoint x="320" y="2160" as="targetPoint" />
            <Array as="points">
              <mxPoint x="460" y="2020" />
              <mxPoint x="370" y="2030" />
            </Array>
            <mxPoint x="370" y="2070" as="sourcePoint" />
          </mxGeometry>
        </mxCell>
        <mxCell id="IptE70Cl41YrFZPhkl_w-41" value="5" style="edgeLabel;html=1;align=center;verticalAlign=middle;resizable=0;points=[];fontFamily=Comic Sans MS;fontStyle=1;fontSize=20;" parent="IptE70Cl41YrFZPhkl_w-40" vertex="1" connectable="0">
          <mxGeometry x="-0.0272" y="5" relative="1" as="geometry">
            <mxPoint x="75" y="20" as="offset" />
          </mxGeometry>
        </mxCell>
        <mxCell id="IptE70Cl41YrFZPhkl_w-42" value="" style="rounded=1;whiteSpace=wrap;html=1;strokeWidth=3;fontStyle=1;fontFamily=Comic Sans MS;" parent="1" vertex="1">
          <mxGeometry x="560" y="2080" width="80" height="40" as="geometry" />
        </mxCell>
        <mxCell id="IptE70Cl41YrFZPhkl_w-43" value="" style="rounded=1;whiteSpace=wrap;html=1;strokeWidth=3;fontStyle=1;fontFamily=Comic Sans MS;" parent="1" vertex="1">
          <mxGeometry x="520" y="2120" width="160" height="40" as="geometry" />
        </mxCell>
        <mxCell id="IptE70Cl41YrFZPhkl_w-44" value="" style="rounded=1;whiteSpace=wrap;html=1;strokeWidth=3;fontStyle=1;fontFamily=Comic Sans MS;" parent="1" vertex="1">
          <mxGeometry x="760" y="2120" width="240" height="40" as="geometry" />
        </mxCell>
        <mxCell id="IptE70Cl41YrFZPhkl_w-45" value="" style="endArrow=none;html=1;rounded=0;strokeWidth=3;fontStyle=1;fontFamily=Comic Sans MS;" parent="1" edge="1">
          <mxGeometry width="50" height="50" relative="1" as="geometry">
            <mxPoint x="320" y="2160" as="sourcePoint" />
            <mxPoint x="320" y="1960" as="targetPoint" />
          </mxGeometry>
        </mxCell>
        <mxCell id="IptE70Cl41YrFZPhkl_w-46" value="" style="endArrow=none;html=1;rounded=0;strokeWidth=3;fontStyle=1;fontFamily=Comic Sans MS;" parent="1" edge="1">
          <mxGeometry width="50" height="50" relative="1" as="geometry">
            <mxPoint x="600" y="2160" as="sourcePoint" />
            <mxPoint x="600" y="1960" as="targetPoint" />
          </mxGeometry>
        </mxCell>
        <mxCell id="IptE70Cl41YrFZPhkl_w-47" value="" style="endArrow=none;html=1;rounded=0;strokeWidth=3;fontStyle=1;fontFamily=Comic Sans MS;" parent="1" edge="1">
          <mxGeometry width="50" height="50" relative="1" as="geometry">
            <mxPoint x="880" y="2160" as="sourcePoint" />
            <mxPoint x="880" y="1960" as="targetPoint" />
          </mxGeometry>
        </mxCell>
        <mxCell id="IptE70Cl41YrFZPhkl_w-49" style="rounded=0;orthogonalLoop=1;jettySize=auto;html=1;strokeWidth=3;fillColor=#a20025;strokeColor=#6F0000;exitX=1;exitY=0.5;exitDx=0;exitDy=0;fontStyle=1;fontFamily=Comic Sans MS;" parent="1" source="IptE70Cl41YrFZPhkl_w-43" edge="1">
          <mxGeometry relative="1" as="geometry">
            <mxPoint x="880" y="2120" as="targetPoint" />
            <Array as="points">
              <mxPoint x="730" y="2060" />
              <mxPoint x="780" y="2060" />
            </Array>
            <mxPoint x="570" y="2110" as="sourcePoint" />
          </mxGeometry>
        </mxCell>
        <mxCell id="IptE70Cl41YrFZPhkl_w-50" value="6" style="edgeLabel;html=1;align=center;verticalAlign=middle;resizable=0;points=[];fontFamily=Comic Sans MS;fontStyle=1;fontSize=20;" parent="IptE70Cl41YrFZPhkl_w-49" vertex="1" connectable="0">
          <mxGeometry x="-0.0272" y="5" relative="1" as="geometry">
            <mxPoint x="-13" y="5" as="offset" />
          </mxGeometry>
        </mxCell>
        <mxCell id="IptE70Cl41YrFZPhkl_w-53" value="" style="rounded=1;whiteSpace=wrap;html=1;strokeWidth=3;fontStyle=1;fontFamily=Comic Sans MS;" parent="1" vertex="1">
          <mxGeometry x="280" y="2360" width="80" height="40" as="geometry" />
        </mxCell>
        <mxCell id="IptE70Cl41YrFZPhkl_w-54" value="" style="rounded=1;whiteSpace=wrap;html=1;strokeWidth=3;fontStyle=1;fontFamily=Comic Sans MS;" parent="1" vertex="1">
          <mxGeometry x="800" y="2320" width="160" height="40" as="geometry" />
        </mxCell>
        <mxCell id="IptE70Cl41YrFZPhkl_w-55" value="" style="rounded=1;whiteSpace=wrap;html=1;strokeWidth=3;fontStyle=1;fontFamily=Comic Sans MS;" parent="1" vertex="1">
          <mxGeometry x="760" y="2360" width="240" height="40" as="geometry" />
        </mxCell>
        <mxCell id="IptE70Cl41YrFZPhkl_w-56" value="" style="endArrow=none;html=1;rounded=0;strokeWidth=3;fontStyle=1;fontFamily=Comic Sans MS;" parent="1" edge="1">
          <mxGeometry width="50" height="50" relative="1" as="geometry">
            <mxPoint x="320" y="2400" as="sourcePoint" />
            <mxPoint x="320" y="2200" as="targetPoint" />
          </mxGeometry>
        </mxCell>
        <mxCell id="IptE70Cl41YrFZPhkl_w-57" value="" style="endArrow=none;html=1;rounded=0;strokeWidth=3;fontStyle=1;fontFamily=Comic Sans MS;" parent="1" edge="1">
          <mxGeometry width="50" height="50" relative="1" as="geometry">
            <mxPoint x="600" y="2400" as="sourcePoint" />
            <mxPoint x="600" y="2200" as="targetPoint" />
          </mxGeometry>
        </mxCell>
        <mxCell id="IptE70Cl41YrFZPhkl_w-58" value="" style="endArrow=none;html=1;rounded=0;strokeWidth=3;fontStyle=1;fontFamily=Comic Sans MS;" parent="1" edge="1">
          <mxGeometry width="50" height="50" relative="1" as="geometry">
            <mxPoint x="880" y="2400" as="sourcePoint" />
            <mxPoint x="880" y="2200" as="targetPoint" />
          </mxGeometry>
        </mxCell>
        <mxCell id="IptE70Cl41YrFZPhkl_w-59" style="rounded=0;orthogonalLoop=1;jettySize=auto;html=1;strokeWidth=3;fillColor=#a20025;strokeColor=#6F0000;entryX=0.5;entryY=0;entryDx=0;entryDy=0;fontStyle=1;fontFamily=Comic Sans MS;" parent="1" target="IptE70Cl41YrFZPhkl_w-54" edge="1">
          <mxGeometry relative="1" as="geometry">
            <mxPoint x="670" y="2370" as="targetPoint" />
            <Array as="points">
              <mxPoint x="500" y="2300" />
              <mxPoint x="720" y="2270" />
            </Array>
            <mxPoint x="320" y="2360" as="sourcePoint" />
          </mxGeometry>
        </mxCell>
        <mxCell id="IptE70Cl41YrFZPhkl_w-60" value="7" style="edgeLabel;html=1;align=center;verticalAlign=middle;resizable=0;points=[];fontFamily=Comic Sans MS;fontStyle=1;fontSize=20;" parent="IptE70Cl41YrFZPhkl_w-59" vertex="1" connectable="0">
          <mxGeometry x="-0.0272" y="5" relative="1" as="geometry">
            <mxPoint x="-13" y="5" as="offset" />
          </mxGeometry>
        </mxCell>
        <mxCell id="IptE70Cl41YrFZPhkl_w-61" value="" style="rounded=1;whiteSpace=wrap;html=1;strokeWidth=3;fontStyle=1;fontFamily=Comic Sans MS;" parent="1" vertex="1">
          <mxGeometry x="840" y="2520" width="80" height="40" as="geometry" />
        </mxCell>
        <mxCell id="IptE70Cl41YrFZPhkl_w-62" value="" style="rounded=1;whiteSpace=wrap;html=1;strokeWidth=3;fontStyle=1;fontFamily=Comic Sans MS;" parent="1" vertex="1">
          <mxGeometry x="800" y="2560" width="160" height="40" as="geometry" />
        </mxCell>
        <mxCell id="IptE70Cl41YrFZPhkl_w-63" value="" style="rounded=1;whiteSpace=wrap;html=1;strokeWidth=3;fontStyle=1;fontFamily=Comic Sans MS;" parent="1" vertex="1">
          <mxGeometry x="760" y="2600" width="240" height="40" as="geometry" />
        </mxCell>
        <mxCell id="IptE70Cl41YrFZPhkl_w-64" value="" style="endArrow=none;html=1;rounded=0;strokeWidth=3;fontStyle=1;fontFamily=Comic Sans MS;" parent="1" edge="1">
          <mxGeometry width="50" height="50" relative="1" as="geometry">
            <mxPoint x="320" y="2640" as="sourcePoint" />
            <mxPoint x="320" y="2440" as="targetPoint" />
          </mxGeometry>
        </mxCell>
        <mxCell id="IptE70Cl41YrFZPhkl_w-65" value="" style="endArrow=none;html=1;rounded=0;strokeWidth=3;fontStyle=1;fontFamily=Comic Sans MS;" parent="1" edge="1">
          <mxGeometry width="50" height="50" relative="1" as="geometry">
            <mxPoint x="600" y="2640" as="sourcePoint" />
            <mxPoint x="600" y="2440" as="targetPoint" />
          </mxGeometry>
        </mxCell>
        <mxCell id="IptE70Cl41YrFZPhkl_w-66" value="" style="endArrow=none;html=1;rounded=0;strokeWidth=3;fontStyle=1;fontFamily=Comic Sans MS;" parent="1" edge="1">
          <mxGeometry width="50" height="50" relative="1" as="geometry">
            <mxPoint x="880" y="2640" as="sourcePoint" />
            <mxPoint x="880" y="2440" as="targetPoint" />
          </mxGeometry>
        </mxCell>
        <mxCell id="IptE70Cl41YrFZPhkl_w-71" value="" style="rounded=1;whiteSpace=wrap;html=1;strokeWidth=3;fontStyle=1;fontFamily=Comic Sans MS;" parent="1" vertex="1">
          <mxGeometry x="280" y="2990" width="80" height="40" as="geometry" />
        </mxCell>
        <mxCell id="IptE70Cl41YrFZPhkl_w-72" style="rounded=0;orthogonalLoop=1;jettySize=auto;html=1;exitX=0.25;exitY=0;exitDx=0;exitDy=0;strokeWidth=3;fillColor=#a20025;strokeColor=#6F0000;fontStyle=1;fontFamily=Comic Sans MS;" parent="1" source="IptE70Cl41YrFZPhkl_w-79" edge="1">
          <mxGeometry relative="1" as="geometry">
            <mxPoint x="600" y="3110" as="targetPoint" />
            <Array as="points">
              <mxPoint x="310" y="2880" />
              <mxPoint x="450" y="2860" />
            </Array>
          </mxGeometry>
        </mxCell>
        <mxCell id="IptE70Cl41YrFZPhkl_w-73" value="1" style="edgeLabel;html=1;align=center;verticalAlign=middle;resizable=0;points=[];fontStyle=1;fontFamily=Comic Sans MS;fontSize=20;" parent="IptE70Cl41YrFZPhkl_w-72" vertex="1" connectable="0">
          <mxGeometry x="0.5686" y="3" relative="1" as="geometry">
            <mxPoint as="offset" />
          </mxGeometry>
        </mxCell>
        <mxCell id="IptE70Cl41YrFZPhkl_w-74" value="" style="rounded=1;whiteSpace=wrap;html=1;strokeWidth=3;fontStyle=1;fontFamily=Comic Sans MS;" parent="1" vertex="1">
          <mxGeometry x="240" y="3030" width="160" height="40" as="geometry" />
        </mxCell>
        <mxCell id="IptE70Cl41YrFZPhkl_w-75" value="" style="rounded=1;whiteSpace=wrap;html=1;strokeWidth=3;fontStyle=1;fontFamily=Comic Sans MS;" parent="1" vertex="1">
          <mxGeometry x="200" y="3070" width="240" height="40" as="geometry" />
        </mxCell>
        <mxCell id="IptE70Cl41YrFZPhkl_w-76" value="" style="endArrow=none;html=1;rounded=0;strokeWidth=3;fontStyle=1;fontFamily=Comic Sans MS;" parent="1" edge="1">
          <mxGeometry width="50" height="50" relative="1" as="geometry">
            <mxPoint x="320" y="3110" as="sourcePoint" />
            <mxPoint x="320" y="2910" as="targetPoint" />
          </mxGeometry>
        </mxCell>
        <mxCell id="IptE70Cl41YrFZPhkl_w-77" value="" style="endArrow=none;html=1;rounded=0;strokeWidth=3;fontStyle=1;fontFamily=Comic Sans MS;" parent="1" edge="1">
          <mxGeometry width="50" height="50" relative="1" as="geometry">
            <mxPoint x="600" y="3110" as="sourcePoint" />
            <mxPoint x="600" y="2910" as="targetPoint" />
          </mxGeometry>
        </mxCell>
        <mxCell id="IptE70Cl41YrFZPhkl_w-78" value="" style="endArrow=none;html=1;rounded=0;strokeWidth=3;fontStyle=1;fontFamily=Comic Sans MS;" parent="1" edge="1">
          <mxGeometry width="50" height="50" relative="1" as="geometry">
            <mxPoint x="880" y="3110" as="sourcePoint" />
            <mxPoint x="880" y="2910" as="targetPoint" />
          </mxGeometry>
        </mxCell>
        <mxCell id="IptE70Cl41YrFZPhkl_w-79" value="" style="whiteSpace=wrap;html=1;fillColor=none;strokeWidth=3;fontColor=#ffffff;strokeColor=#6F0000;dashed=1;fontStyle=1;fontFamily=Comic Sans MS;" parent="1" vertex="1">
          <mxGeometry x="220" y="2980" width="200" height="100" as="geometry" />
        </mxCell>
        <mxCell id="IptE70Cl41YrFZPhkl_w-80" value="" style="rounded=1;whiteSpace=wrap;html=1;strokeWidth=3;fontStyle=1;fontFamily=Comic Sans MS;" parent="1" vertex="1">
          <mxGeometry x="560" y="3320" width="80" height="40" as="geometry" />
        </mxCell>
        <mxCell id="IptE70Cl41YrFZPhkl_w-81" style="rounded=0;orthogonalLoop=1;jettySize=auto;html=1;exitX=0.25;exitY=0;exitDx=0;exitDy=0;strokeWidth=3;fillColor=#a20025;strokeColor=#6F0000;fontStyle=1;fontFamily=Comic Sans MS;" parent="1" source="IptE70Cl41YrFZPhkl_w-88" edge="1">
          <mxGeometry relative="1" as="geometry">
            <mxPoint x="880" y="3400" as="targetPoint" />
            <Array as="points">
              <mxPoint x="310" y="3170" />
              <mxPoint x="450" y="3150" />
            </Array>
          </mxGeometry>
        </mxCell>
        <mxCell id="IptE70Cl41YrFZPhkl_w-82" value="2" style="edgeLabel;html=1;align=center;verticalAlign=middle;resizable=0;points=[];fontStyle=1;fontFamily=Comic Sans MS;fontSize=20;" parent="IptE70Cl41YrFZPhkl_w-81" vertex="1" connectable="0">
          <mxGeometry x="0.5686" y="3" relative="1" as="geometry">
            <mxPoint as="offset" />
          </mxGeometry>
        </mxCell>
        <mxCell id="IptE70Cl41YrFZPhkl_w-83" value="" style="rounded=1;whiteSpace=wrap;html=1;strokeWidth=3;fontStyle=1;fontFamily=Comic Sans MS;" parent="1" vertex="1">
          <mxGeometry x="520" y="3360" width="160" height="40" as="geometry" />
        </mxCell>
        <mxCell id="IptE70Cl41YrFZPhkl_w-84" value="" style="rounded=1;whiteSpace=wrap;html=1;strokeWidth=3;fontStyle=1;fontFamily=Comic Sans MS;" parent="1" vertex="1">
          <mxGeometry x="200" y="3360" width="240" height="40" as="geometry" />
        </mxCell>
        <mxCell id="IptE70Cl41YrFZPhkl_w-85" value="" style="endArrow=none;html=1;rounded=0;strokeWidth=3;fontStyle=1;fontFamily=Comic Sans MS;" parent="1" edge="1">
          <mxGeometry width="50" height="50" relative="1" as="geometry">
            <mxPoint x="320" y="3400" as="sourcePoint" />
            <mxPoint x="320" y="3200" as="targetPoint" />
          </mxGeometry>
        </mxCell>
        <mxCell id="IptE70Cl41YrFZPhkl_w-86" value="" style="endArrow=none;html=1;rounded=0;strokeWidth=3;fontStyle=1;fontFamily=Comic Sans MS;" parent="1" edge="1">
          <mxGeometry width="50" height="50" relative="1" as="geometry">
            <mxPoint x="600" y="3400" as="sourcePoint" />
            <mxPoint x="600" y="3200" as="targetPoint" />
          </mxGeometry>
        </mxCell>
        <mxCell id="IptE70Cl41YrFZPhkl_w-87" value="" style="endArrow=none;html=1;rounded=0;strokeWidth=3;fontStyle=1;fontFamily=Comic Sans MS;" parent="1" edge="1">
          <mxGeometry width="50" height="50" relative="1" as="geometry">
            <mxPoint x="880" y="3400" as="sourcePoint" />
            <mxPoint x="880" y="3200" as="targetPoint" />
          </mxGeometry>
        </mxCell>
        <mxCell id="IptE70Cl41YrFZPhkl_w-88" value="" style="whiteSpace=wrap;html=1;fillColor=none;strokeWidth=3;fontColor=#ffffff;strokeColor=#6F0000;dashed=1;fontStyle=1;fontFamily=Comic Sans MS;" parent="1" vertex="1">
          <mxGeometry x="180" y="3340" width="280" height="80" as="geometry" />
        </mxCell>
        <mxCell id="IptE70Cl41YrFZPhkl_w-98" value="" style="rounded=1;whiteSpace=wrap;html=1;strokeWidth=3;fontStyle=1;fontFamily=Comic Sans MS;" parent="1" vertex="1">
          <mxGeometry x="560" y="3600" width="80" height="40" as="geometry" />
        </mxCell>
        <mxCell id="IptE70Cl41YrFZPhkl_w-99" style="rounded=0;orthogonalLoop=1;jettySize=auto;html=1;exitX=0.25;exitY=0;exitDx=0;exitDy=0;strokeWidth=3;fillColor=#a20025;strokeColor=#6F0000;fontStyle=1;fontFamily=Comic Sans MS;" parent="1" source="IptE70Cl41YrFZPhkl_w-106" edge="1">
          <mxGeometry relative="1" as="geometry">
            <mxPoint x="880" y="3640" as="targetPoint" />
            <Array as="points">
              <mxPoint x="560" y="3510" />
              <mxPoint x="660" y="3500" />
            </Array>
          </mxGeometry>
        </mxCell>
        <mxCell id="IptE70Cl41YrFZPhkl_w-100" value="3" style="edgeLabel;html=1;align=center;verticalAlign=middle;resizable=0;points=[];fontStyle=1;fontFamily=Comic Sans MS;fontSize=20;" parent="IptE70Cl41YrFZPhkl_w-99" vertex="1" connectable="0">
          <mxGeometry x="0.5686" y="3" relative="1" as="geometry">
            <mxPoint as="offset" />
          </mxGeometry>
        </mxCell>
        <mxCell id="IptE70Cl41YrFZPhkl_w-101" value="" style="rounded=1;whiteSpace=wrap;html=1;strokeWidth=3;fontStyle=1;fontFamily=Comic Sans MS;" parent="1" vertex="1">
          <mxGeometry x="520" y="3640" width="160" height="40" as="geometry" />
        </mxCell>
        <mxCell id="IptE70Cl41YrFZPhkl_w-102" value="" style="rounded=1;whiteSpace=wrap;html=1;strokeWidth=3;fontStyle=1;fontFamily=Comic Sans MS;" parent="1" vertex="1">
          <mxGeometry x="760" y="3640" width="240" height="40" as="geometry" />
        </mxCell>
        <mxCell id="IptE70Cl41YrFZPhkl_w-103" value="" style="endArrow=none;html=1;rounded=0;strokeWidth=3;fontStyle=1;fontFamily=Comic Sans MS;" parent="1" edge="1">
          <mxGeometry width="50" height="50" relative="1" as="geometry">
            <mxPoint x="320" y="3680" as="sourcePoint" />
            <mxPoint x="320" y="3480" as="targetPoint" />
          </mxGeometry>
        </mxCell>
        <mxCell id="IptE70Cl41YrFZPhkl_w-104" value="" style="endArrow=none;html=1;rounded=0;strokeWidth=3;fontStyle=1;fontFamily=Comic Sans MS;" parent="1" edge="1">
          <mxGeometry width="50" height="50" relative="1" as="geometry">
            <mxPoint x="600" y="3680" as="sourcePoint" />
            <mxPoint x="600" y="3480" as="targetPoint" />
          </mxGeometry>
        </mxCell>
        <mxCell id="IptE70Cl41YrFZPhkl_w-105" value="" style="endArrow=none;html=1;rounded=0;strokeWidth=3;fontStyle=1;fontFamily=Comic Sans MS;" parent="1" edge="1">
          <mxGeometry width="50" height="50" relative="1" as="geometry">
            <mxPoint x="880" y="3680" as="sourcePoint" />
            <mxPoint x="880" y="3480" as="targetPoint" />
          </mxGeometry>
        </mxCell>
        <mxCell id="IptE70Cl41YrFZPhkl_w-106" value="" style="whiteSpace=wrap;html=1;fillColor=none;strokeWidth=3;fontColor=#ffffff;strokeColor=#6F0000;dashed=1;fontStyle=1;fontFamily=Comic Sans MS;" parent="1" vertex="1">
          <mxGeometry x="500" y="3580" width="200" height="120" as="geometry" />
        </mxCell>
        <mxCell id="IptE70Cl41YrFZPhkl_w-107" value="" style="rounded=1;whiteSpace=wrap;html=1;strokeWidth=3;fontStyle=1;fontFamily=Comic Sans MS;" parent="1" vertex="1">
          <mxGeometry x="840" y="3880" width="80" height="40" as="geometry" />
        </mxCell>
        <mxCell id="IptE70Cl41YrFZPhkl_w-110" value="" style="rounded=1;whiteSpace=wrap;html=1;strokeWidth=3;fontStyle=1;fontFamily=Comic Sans MS;" parent="1" vertex="1">
          <mxGeometry x="800" y="3920" width="160" height="40" as="geometry" />
        </mxCell>
        <mxCell id="IptE70Cl41YrFZPhkl_w-111" value="" style="rounded=1;whiteSpace=wrap;html=1;strokeWidth=3;fontStyle=1;fontFamily=Comic Sans MS;" parent="1" vertex="1">
          <mxGeometry x="760" y="3960" width="240" height="40" as="geometry" />
        </mxCell>
        <mxCell id="IptE70Cl41YrFZPhkl_w-112" value="" style="endArrow=none;html=1;rounded=0;strokeWidth=3;fontStyle=1;fontFamily=Comic Sans MS;" parent="1" edge="1">
          <mxGeometry width="50" height="50" relative="1" as="geometry">
            <mxPoint x="320" y="4000" as="sourcePoint" />
            <mxPoint x="320" y="3800" as="targetPoint" />
          </mxGeometry>
        </mxCell>
        <mxCell id="IptE70Cl41YrFZPhkl_w-113" value="" style="endArrow=none;html=1;rounded=0;strokeWidth=3;fontStyle=1;fontFamily=Comic Sans MS;" parent="1" edge="1">
          <mxGeometry width="50" height="50" relative="1" as="geometry">
            <mxPoint x="600" y="4000" as="sourcePoint" />
            <mxPoint x="600" y="3800" as="targetPoint" />
          </mxGeometry>
        </mxCell>
        <mxCell id="IptE70Cl41YrFZPhkl_w-114" value="" style="endArrow=none;html=1;rounded=0;strokeWidth=3;fontStyle=1;fontFamily=Comic Sans MS;" parent="1" edge="1">
          <mxGeometry width="50" height="50" relative="1" as="geometry">
            <mxPoint x="880" y="4000" as="sourcePoint" />
            <mxPoint x="880" y="3800" as="targetPoint" />
          </mxGeometry>
        </mxCell>
        <mxCell id="jYRdBvo0VxYVKVbWoMzO-5" style="rounded=0;orthogonalLoop=1;jettySize=auto;html=1;fontStyle=1;strokeWidth=2;fontFamily=Comic Sans MS;" parent="1" source="jYRdBvo0VxYVKVbWoMzO-1" target="jYRdBvo0VxYVKVbWoMzO-2" edge="1">
          <mxGeometry relative="1" as="geometry" />
        </mxCell>
        <mxCell id="jYRdBvo0VxYVKVbWoMzO-6" style="rounded=0;orthogonalLoop=1;jettySize=auto;html=1;fontStyle=1;strokeWidth=2;fontFamily=Comic Sans MS;" parent="1" source="jYRdBvo0VxYVKVbWoMzO-1" target="jYRdBvo0VxYVKVbWoMzO-4" edge="1">
          <mxGeometry relative="1" as="geometry" />
        </mxCell>
        <mxCell id="jYRdBvo0VxYVKVbWoMzO-10" style="rounded=0;orthogonalLoop=1;jettySize=auto;html=1;fontStyle=1;strokeWidth=2;fontFamily=Comic Sans MS;" parent="1" source="jYRdBvo0VxYVKVbWoMzO-1" target="jYRdBvo0VxYVKVbWoMzO-3" edge="1">
          <mxGeometry relative="1" as="geometry" />
        </mxCell>
        <mxCell id="jYRdBvo0VxYVKVbWoMzO-1" value="V1" style="ellipse;whiteSpace=wrap;html=1;aspect=fixed;fontStyle=1;strokeWidth=2;fontFamily=Comic Sans MS;" parent="1" vertex="1">
          <mxGeometry x="2160" y="1260" width="40" height="40" as="geometry" />
        </mxCell>
        <mxCell id="jYRdBvo0VxYVKVbWoMzO-2" value="V2" style="ellipse;whiteSpace=wrap;html=1;aspect=fixed;fontStyle=1;strokeWidth=2;fontFamily=Comic Sans MS;" parent="1" vertex="1">
          <mxGeometry x="2170" y="1340" width="40" height="40" as="geometry" />
        </mxCell>
        <mxCell id="jYRdBvo0VxYVKVbWoMzO-9" style="rounded=0;orthogonalLoop=1;jettySize=auto;html=1;fontStyle=1;strokeWidth=2;fontFamily=Comic Sans MS;" parent="1" source="jYRdBvo0VxYVKVbWoMzO-3" target="jYRdBvo0VxYVKVbWoMzO-2" edge="1">
          <mxGeometry relative="1" as="geometry" />
        </mxCell>
        <mxCell id="jYRdBvo0VxYVKVbWoMzO-3" value="V4" style="ellipse;whiteSpace=wrap;html=1;aspect=fixed;fontStyle=1;strokeWidth=2;fontFamily=Comic Sans MS;" parent="1" vertex="1">
          <mxGeometry x="2300" y="1310" width="40" height="40" as="geometry" />
        </mxCell>
        <mxCell id="jYRdBvo0VxYVKVbWoMzO-4" value="V3" style="ellipse;whiteSpace=wrap;html=1;aspect=fixed;fontStyle=1;strokeWidth=2;fontFamily=Comic Sans MS;" parent="1" vertex="1">
          <mxGeometry x="2240" y="1220" width="40" height="40" as="geometry" />
        </mxCell>
        <mxCell id="jYRdBvo0VxYVKVbWoMzO-8" style="rounded=0;orthogonalLoop=1;jettySize=auto;html=1;fontStyle=1;strokeWidth=2;fontFamily=Comic Sans MS;" parent="1" source="jYRdBvo0VxYVKVbWoMzO-4" target="jYRdBvo0VxYVKVbWoMzO-3" edge="1">
          <mxGeometry relative="1" as="geometry" />
        </mxCell>
        <mxCell id="jYRdBvo0VxYVKVbWoMzO-13" style="rounded=0;orthogonalLoop=1;jettySize=auto;html=1;strokeWidth=2;" parent="1" source="jYRdBvo0VxYVKVbWoMzO-11" target="jYRdBvo0VxYVKVbWoMzO-12" edge="1">
          <mxGeometry relative="1" as="geometry" />
        </mxCell>
        <mxCell id="jYRdBvo0VxYVKVbWoMzO-11" value="V1&#39;" style="ellipse;whiteSpace=wrap;html=1;aspect=fixed;fontStyle=1;strokeWidth=2;fontFamily=Comic Sans MS;" parent="1" vertex="1">
          <mxGeometry x="2360" y="1260" width="40" height="40" as="geometry" />
        </mxCell>
        <mxCell id="jYRdBvo0VxYVKVbWoMzO-12" value="V2&#39;" style="ellipse;whiteSpace=wrap;html=1;aspect=fixed;fontStyle=1;strokeWidth=2;fontFamily=Comic Sans MS;" parent="1" vertex="1">
          <mxGeometry x="2370" y="1340" width="40" height="40" as="geometry" />
        </mxCell>
        <mxCell id="jYRdBvo0VxYVKVbWoMzO-14" style="rounded=0;orthogonalLoop=1;jettySize=auto;html=1;fontStyle=1;strokeWidth=2;fontFamily=Comic Sans MS;endArrow=none;endFill=0;" parent="1" source="jYRdBvo0VxYVKVbWoMzO-17" target="jYRdBvo0VxYVKVbWoMzO-18" edge="1">
          <mxGeometry relative="1" as="geometry" />
        </mxCell>
        <mxCell id="jYRdBvo0VxYVKVbWoMzO-15" style="rounded=0;orthogonalLoop=1;jettySize=auto;html=1;fontStyle=1;strokeWidth=2;fontFamily=Comic Sans MS;endArrow=none;endFill=0;" parent="1" source="jYRdBvo0VxYVKVbWoMzO-17" target="jYRdBvo0VxYVKVbWoMzO-21" edge="1">
          <mxGeometry relative="1" as="geometry" />
        </mxCell>
        <mxCell id="jYRdBvo0VxYVKVbWoMzO-16" style="rounded=0;orthogonalLoop=1;jettySize=auto;html=1;fontStyle=1;strokeWidth=2;fontFamily=Comic Sans MS;endArrow=none;endFill=0;" parent="1" source="jYRdBvo0VxYVKVbWoMzO-17" target="jYRdBvo0VxYVKVbWoMzO-20" edge="1">
          <mxGeometry relative="1" as="geometry" />
        </mxCell>
        <mxCell id="jYRdBvo0VxYVKVbWoMzO-17" value="V1" style="ellipse;whiteSpace=wrap;html=1;aspect=fixed;fontStyle=1;strokeWidth=2;fontFamily=Comic Sans MS;" parent="1" vertex="1">
          <mxGeometry x="2160" y="1110" width="40" height="40" as="geometry" />
        </mxCell>
        <mxCell id="jYRdBvo0VxYVKVbWoMzO-18" value="V2" style="ellipse;whiteSpace=wrap;html=1;aspect=fixed;fontStyle=1;strokeWidth=2;fontFamily=Comic Sans MS;" parent="1" vertex="1">
          <mxGeometry x="2170" y="1190" width="40" height="40" as="geometry" />
        </mxCell>
        <mxCell id="jYRdBvo0VxYVKVbWoMzO-19" style="rounded=0;orthogonalLoop=1;jettySize=auto;html=1;fontStyle=1;strokeWidth=2;fontFamily=Comic Sans MS;endArrow=none;endFill=0;" parent="1" source="jYRdBvo0VxYVKVbWoMzO-20" target="jYRdBvo0VxYVKVbWoMzO-18" edge="1">
          <mxGeometry relative="1" as="geometry" />
        </mxCell>
        <mxCell id="jYRdBvo0VxYVKVbWoMzO-20" value="V4" style="ellipse;whiteSpace=wrap;html=1;aspect=fixed;fontStyle=1;strokeWidth=2;fontFamily=Comic Sans MS;" parent="1" vertex="1">
          <mxGeometry x="2300" y="1160" width="40" height="40" as="geometry" />
        </mxCell>
        <mxCell id="jYRdBvo0VxYVKVbWoMzO-21" value="V3" style="ellipse;whiteSpace=wrap;html=1;aspect=fixed;fontStyle=1;strokeWidth=2;fontFamily=Comic Sans MS;" parent="1" vertex="1">
          <mxGeometry x="2240" y="1070" width="40" height="40" as="geometry" />
        </mxCell>
        <mxCell id="jYRdBvo0VxYVKVbWoMzO-22" style="rounded=0;orthogonalLoop=1;jettySize=auto;html=1;fontStyle=1;strokeWidth=2;fontFamily=Comic Sans MS;endArrow=none;endFill=0;" parent="1" source="jYRdBvo0VxYVKVbWoMzO-21" target="jYRdBvo0VxYVKVbWoMzO-20" edge="1">
          <mxGeometry relative="1" as="geometry" />
        </mxCell>
        <mxCell id="jYRdBvo0VxYVKVbWoMzO-23" style="rounded=0;orthogonalLoop=1;jettySize=auto;html=1;strokeWidth=2;endArrow=none;endFill=0;" parent="1" source="jYRdBvo0VxYVKVbWoMzO-24" target="jYRdBvo0VxYVKVbWoMzO-25" edge="1">
          <mxGeometry relative="1" as="geometry" />
        </mxCell>
        <mxCell id="jYRdBvo0VxYVKVbWoMzO-24" value="V1&#39;" style="ellipse;whiteSpace=wrap;html=1;aspect=fixed;fontStyle=1;strokeWidth=2;fontFamily=Comic Sans MS;" parent="1" vertex="1">
          <mxGeometry x="2360" y="1110" width="40" height="40" as="geometry" />
        </mxCell>
        <mxCell id="jYRdBvo0VxYVKVbWoMzO-25" value="V2&#39;" style="ellipse;whiteSpace=wrap;html=1;aspect=fixed;fontStyle=1;strokeWidth=2;fontFamily=Comic Sans MS;" parent="1" vertex="1">
          <mxGeometry x="2370" y="1190" width="40" height="40" as="geometry" />
        </mxCell>
        <mxCell id="jYRdBvo0VxYVKVbWoMzO-26" value="G1" style="text;html=1;align=center;verticalAlign=middle;resizable=0;points=[];autosize=1;strokeColor=none;fillColor=none;fontFamily=Comic Sans MS;fontStyle=1" parent="1" vertex="1">
          <mxGeometry x="2200" y="1150" width="40" height="30" as="geometry" />
        </mxCell>
        <mxCell id="jYRdBvo0VxYVKVbWoMzO-27" value="G2" style="text;html=1;align=center;verticalAlign=middle;resizable=0;points=[];autosize=1;strokeColor=none;fillColor=none;fontFamily=Comic Sans MS;fontStyle=1" parent="1" vertex="1">
          <mxGeometry x="2390" y="1160" width="40" height="30" as="geometry" />
        </mxCell>
        <mxCell id="jYRdBvo0VxYVKVbWoMzO-28" value="G3" style="text;html=1;align=center;verticalAlign=middle;resizable=0;points=[];autosize=1;strokeColor=none;fillColor=none;fontFamily=Comic Sans MS;fontStyle=1" parent="1" vertex="1">
          <mxGeometry x="2200" y="1310" width="40" height="30" as="geometry" />
        </mxCell>
        <mxCell id="jYRdBvo0VxYVKVbWoMzO-29" value="G4" style="text;html=1;align=center;verticalAlign=middle;resizable=0;points=[];autosize=1;strokeColor=none;fillColor=none;fontFamily=Comic Sans MS;fontStyle=1" parent="1" vertex="1">
          <mxGeometry x="2390" y="1300" width="40" height="30" as="geometry" />
        </mxCell>
        <mxCell id="bgv04-gCG5UVtlGr81CU-1" style="rounded=0;orthogonalLoop=1;jettySize=auto;html=1;fontStyle=1;strokeWidth=2;fontFamily=Comic Sans MS;endArrow=none;endFill=0;" edge="1" parent="1" source="bgv04-gCG5UVtlGr81CU-4" target="bgv04-gCG5UVtlGr81CU-5">
          <mxGeometry relative="1" as="geometry" />
        </mxCell>
        <mxCell id="bgv04-gCG5UVtlGr81CU-2" style="rounded=0;orthogonalLoop=1;jettySize=auto;html=1;fontStyle=1;strokeWidth=2;fontFamily=Comic Sans MS;endArrow=none;endFill=0;" edge="1" parent="1" source="bgv04-gCG5UVtlGr81CU-4" target="bgv04-gCG5UVtlGr81CU-8">
          <mxGeometry relative="1" as="geometry" />
        </mxCell>
        <mxCell id="bgv04-gCG5UVtlGr81CU-3" style="rounded=0;orthogonalLoop=1;jettySize=auto;html=1;fontStyle=1;strokeWidth=2;fontFamily=Comic Sans MS;endArrow=none;endFill=0;" edge="1" parent="1" source="bgv04-gCG5UVtlGr81CU-4" target="bgv04-gCG5UVtlGr81CU-7">
          <mxGeometry relative="1" as="geometry" />
        </mxCell>
        <mxCell id="bgv04-gCG5UVtlGr81CU-4" value="A" style="ellipse;whiteSpace=wrap;html=1;aspect=fixed;fontStyle=1;strokeWidth=2;fontFamily=Comic Sans MS;" vertex="1" parent="1">
          <mxGeometry x="2120" y="1430" width="40" height="40" as="geometry" />
        </mxCell>
        <mxCell id="bgv04-gCG5UVtlGr81CU-5" value="L" style="ellipse;whiteSpace=wrap;html=1;aspect=fixed;fontStyle=1;strokeWidth=2;fontFamily=Comic Sans MS;" vertex="1" parent="1">
          <mxGeometry x="2120" y="1660" width="40" height="40" as="geometry" />
        </mxCell>
        <mxCell id="bgv04-gCG5UVtlGr81CU-12" style="rounded=0;orthogonalLoop=1;jettySize=auto;html=1;strokeWidth=2;endArrow=none;endFill=0;" edge="1" parent="1" source="bgv04-gCG5UVtlGr81CU-4" target="bgv04-gCG5UVtlGr81CU-11">
          <mxGeometry relative="1" as="geometry" />
        </mxCell>
        <mxCell id="bgv04-gCG5UVtlGr81CU-7" value="C" style="ellipse;whiteSpace=wrap;html=1;aspect=fixed;fontStyle=1;strokeWidth=2;fontFamily=Comic Sans MS;" vertex="1" parent="1">
          <mxGeometry x="2180" y="1480" width="40" height="40" as="geometry" />
        </mxCell>
        <mxCell id="bgv04-gCG5UVtlGr81CU-23" style="rounded=0;orthogonalLoop=1;jettySize=auto;html=1;strokeWidth=2;endArrow=none;endFill=0;" edge="1" parent="1" source="bgv04-gCG5UVtlGr81CU-8" target="bgv04-gCG5UVtlGr81CU-22">
          <mxGeometry relative="1" as="geometry" />
        </mxCell>
        <mxCell id="bgv04-gCG5UVtlGr81CU-8" value="B" style="ellipse;whiteSpace=wrap;html=1;aspect=fixed;fontStyle=1;strokeWidth=2;fontFamily=Comic Sans MS;" vertex="1" parent="1">
          <mxGeometry x="2360" y="1430" width="40" height="40" as="geometry" />
        </mxCell>
        <mxCell id="bgv04-gCG5UVtlGr81CU-10" value="无向图G" style="text;html=1;align=center;verticalAlign=middle;resizable=0;points=[];autosize=1;strokeColor=none;fillColor=none;fontFamily=Comic Sans MS;fontStyle=1" vertex="1" parent="1">
          <mxGeometry x="2225" y="1645" width="70" height="30" as="geometry" />
        </mxCell>
        <mxCell id="bgv04-gCG5UVtlGr81CU-11" value="F" style="ellipse;whiteSpace=wrap;html=1;aspect=fixed;fontStyle=1;strokeWidth=2;fontFamily=Comic Sans MS;" vertex="1" parent="1">
          <mxGeometry x="2180" y="1540" width="40" height="40" as="geometry" />
        </mxCell>
        <mxCell id="bgv04-gCG5UVtlGr81CU-13" value="I" style="ellipse;whiteSpace=wrap;html=1;aspect=fixed;fontStyle=1;strokeWidth=2;fontFamily=Comic Sans MS;" vertex="1" parent="1">
          <mxGeometry x="2180" y="1600" width="40" height="40" as="geometry" />
        </mxCell>
        <mxCell id="bgv04-gCG5UVtlGr81CU-20" style="rounded=0;orthogonalLoop=1;jettySize=auto;html=1;strokeWidth=2;endArrow=none;endFill=0;" edge="1" parent="1" source="bgv04-gCG5UVtlGr81CU-14" target="bgv04-gCG5UVtlGr81CU-13">
          <mxGeometry relative="1" as="geometry" />
        </mxCell>
        <mxCell id="bgv04-gCG5UVtlGr81CU-27" style="rounded=0;orthogonalLoop=1;jettySize=auto;html=1;endArrow=none;endFill=0;strokeWidth=2;" edge="1" parent="1" source="bgv04-gCG5UVtlGr81CU-14" target="bgv04-gCG5UVtlGr81CU-15">
          <mxGeometry relative="1" as="geometry" />
        </mxCell>
        <mxCell id="bgv04-gCG5UVtlGr81CU-14" value="G" style="ellipse;whiteSpace=wrap;html=1;aspect=fixed;fontStyle=1;strokeWidth=2;fontFamily=Comic Sans MS;" vertex="1" parent="1">
          <mxGeometry x="2240" y="1540" width="40" height="40" as="geometry" />
        </mxCell>
        <mxCell id="bgv04-gCG5UVtlGr81CU-15" value="H" style="ellipse;whiteSpace=wrap;html=1;aspect=fixed;fontStyle=1;strokeWidth=2;fontFamily=Comic Sans MS;" vertex="1" parent="1">
          <mxGeometry x="2300" y="1540" width="40" height="40" as="geometry" />
        </mxCell>
        <mxCell id="bgv04-gCG5UVtlGr81CU-17" style="rounded=0;orthogonalLoop=1;jettySize=auto;html=1;strokeWidth=2;endArrow=none;endFill=0;" edge="1" parent="1" source="bgv04-gCG5UVtlGr81CU-16" target="bgv04-gCG5UVtlGr81CU-14">
          <mxGeometry relative="1" as="geometry" />
        </mxCell>
        <mxCell id="bgv04-gCG5UVtlGr81CU-26" style="rounded=0;orthogonalLoop=1;jettySize=auto;html=1;endArrow=none;endFill=0;strokeWidth=2;" edge="1" parent="1" source="bgv04-gCG5UVtlGr81CU-16" target="bgv04-gCG5UVtlGr81CU-15">
          <mxGeometry relative="1" as="geometry" />
        </mxCell>
        <mxCell id="bgv04-gCG5UVtlGr81CU-16" value="K" style="ellipse;whiteSpace=wrap;html=1;aspect=fixed;fontStyle=1;strokeWidth=2;fontFamily=Comic Sans MS;" vertex="1" parent="1">
          <mxGeometry x="2300" y="1600" width="40" height="40" as="geometry" />
        </mxCell>
        <mxCell id="bgv04-gCG5UVtlGr81CU-25" style="rounded=0;orthogonalLoop=1;jettySize=auto;html=1;strokeWidth=2;endArrow=none;endFill=0;" edge="1" parent="1" source="bgv04-gCG5UVtlGr81CU-18" target="bgv04-gCG5UVtlGr81CU-19">
          <mxGeometry relative="1" as="geometry" />
        </mxCell>
        <mxCell id="bgv04-gCG5UVtlGr81CU-18" value="D" style="ellipse;whiteSpace=wrap;html=1;aspect=fixed;fontStyle=1;strokeWidth=2;fontFamily=Comic Sans MS;" vertex="1" parent="1">
          <mxGeometry x="2250" y="1720" width="40" height="40" as="geometry" />
        </mxCell>
        <mxCell id="bgv04-gCG5UVtlGr81CU-19" value="E" style="ellipse;whiteSpace=wrap;html=1;aspect=fixed;fontStyle=1;strokeWidth=2;fontFamily=Comic Sans MS;" vertex="1" parent="1">
          <mxGeometry x="2310" y="1720" width="40" height="40" as="geometry" />
        </mxCell>
        <mxCell id="bgv04-gCG5UVtlGr81CU-28" style="rounded=0;orthogonalLoop=1;jettySize=auto;html=1;strokeWidth=2;endArrow=none;endFill=0;" edge="1" parent="1" source="bgv04-gCG5UVtlGr81CU-21" target="bgv04-gCG5UVtlGr81CU-5">
          <mxGeometry relative="1" as="geometry" />
        </mxCell>
        <mxCell id="bgv04-gCG5UVtlGr81CU-29" style="rounded=0;orthogonalLoop=1;jettySize=auto;html=1;strokeWidth=2;endArrow=none;endFill=0;" edge="1" parent="1" source="bgv04-gCG5UVtlGr81CU-21" target="bgv04-gCG5UVtlGr81CU-22">
          <mxGeometry relative="1" as="geometry" />
        </mxCell>
        <mxCell id="bgv04-gCG5UVtlGr81CU-21" value="J" style="ellipse;whiteSpace=wrap;html=1;aspect=fixed;fontStyle=1;strokeWidth=2;fontFamily=Comic Sans MS;" vertex="1" parent="1">
          <mxGeometry x="2240" y="1600" width="40" height="40" as="geometry" />
        </mxCell>
        <mxCell id="bgv04-gCG5UVtlGr81CU-24" style="rounded=0;orthogonalLoop=1;jettySize=auto;html=1;strokeWidth=2;endArrow=none;endFill=0;" edge="1" parent="1" source="bgv04-gCG5UVtlGr81CU-22" target="bgv04-gCG5UVtlGr81CU-5">
          <mxGeometry relative="1" as="geometry" />
        </mxCell>
        <mxCell id="bgv04-gCG5UVtlGr81CU-22" value="M" style="ellipse;whiteSpace=wrap;html=1;aspect=fixed;fontStyle=1;strokeWidth=2;fontFamily=Comic Sans MS;" vertex="1" parent="1">
          <mxGeometry x="2360" y="1660" width="40" height="40" as="geometry" />
        </mxCell>
        <mxCell id="bgv04-gCG5UVtlGr81CU-57" style="rounded=0;orthogonalLoop=1;jettySize=auto;html=1;fontStyle=1;strokeWidth=2;fontFamily=Comic Sans MS;endArrow=none;endFill=0;" edge="1" parent="1" source="bgv04-gCG5UVtlGr81CU-60" target="bgv04-gCG5UVtlGr81CU-61">
          <mxGeometry relative="1" as="geometry" />
        </mxCell>
        <mxCell id="bgv04-gCG5UVtlGr81CU-58" style="rounded=0;orthogonalLoop=1;jettySize=auto;html=1;fontStyle=1;strokeWidth=2;fontFamily=Comic Sans MS;endArrow=none;endFill=0;" edge="1" parent="1" source="bgv04-gCG5UVtlGr81CU-60" target="bgv04-gCG5UVtlGr81CU-65">
          <mxGeometry relative="1" as="geometry" />
        </mxCell>
        <mxCell id="bgv04-gCG5UVtlGr81CU-59" style="rounded=0;orthogonalLoop=1;jettySize=auto;html=1;fontStyle=1;strokeWidth=2;fontFamily=Comic Sans MS;endArrow=none;endFill=0;" edge="1" parent="1" source="bgv04-gCG5UVtlGr81CU-60" target="bgv04-gCG5UVtlGr81CU-63">
          <mxGeometry relative="1" as="geometry" />
        </mxCell>
        <mxCell id="bgv04-gCG5UVtlGr81CU-60" value="A" style="ellipse;whiteSpace=wrap;html=1;aspect=fixed;fontStyle=1;strokeWidth=2;fontFamily=Comic Sans MS;" vertex="1" parent="1">
          <mxGeometry x="2440" y="1430" width="40" height="40" as="geometry" />
        </mxCell>
        <mxCell id="bgv04-gCG5UVtlGr81CU-61" value="L" style="ellipse;whiteSpace=wrap;html=1;aspect=fixed;fontStyle=1;strokeWidth=2;fontFamily=Comic Sans MS;" vertex="1" parent="1">
          <mxGeometry x="2440" y="1660" width="40" height="40" as="geometry" />
        </mxCell>
        <mxCell id="bgv04-gCG5UVtlGr81CU-62" style="rounded=0;orthogonalLoop=1;jettySize=auto;html=1;strokeWidth=2;endArrow=none;endFill=0;" edge="1" parent="1" source="bgv04-gCG5UVtlGr81CU-60" target="bgv04-gCG5UVtlGr81CU-66">
          <mxGeometry relative="1" as="geometry" />
        </mxCell>
        <mxCell id="bgv04-gCG5UVtlGr81CU-63" value="C" style="ellipse;whiteSpace=wrap;html=1;aspect=fixed;fontStyle=1;strokeWidth=2;fontFamily=Comic Sans MS;" vertex="1" parent="1">
          <mxGeometry x="2500" y="1480" width="40" height="40" as="geometry" />
        </mxCell>
        <mxCell id="bgv04-gCG5UVtlGr81CU-64" style="rounded=0;orthogonalLoop=1;jettySize=auto;html=1;strokeWidth=2;endArrow=none;endFill=0;" edge="1" parent="1" source="bgv04-gCG5UVtlGr81CU-65" target="bgv04-gCG5UVtlGr81CU-71">
          <mxGeometry relative="1" as="geometry" />
        </mxCell>
        <mxCell id="bgv04-gCG5UVtlGr81CU-65" value="B" style="ellipse;whiteSpace=wrap;html=1;aspect=fixed;fontStyle=1;strokeWidth=2;fontFamily=Comic Sans MS;" vertex="1" parent="1">
          <mxGeometry x="2680" y="1430" width="40" height="40" as="geometry" />
        </mxCell>
        <mxCell id="bgv04-gCG5UVtlGr81CU-66" value="F" style="ellipse;whiteSpace=wrap;html=1;aspect=fixed;fontStyle=1;strokeWidth=2;fontFamily=Comic Sans MS;" vertex="1" parent="1">
          <mxGeometry x="2500" y="1540" width="40" height="40" as="geometry" />
        </mxCell>
        <mxCell id="bgv04-gCG5UVtlGr81CU-67" style="rounded=0;orthogonalLoop=1;jettySize=auto;html=1;strokeWidth=2;endArrow=none;endFill=0;" edge="1" parent="1" source="bgv04-gCG5UVtlGr81CU-69" target="bgv04-gCG5UVtlGr81CU-61">
          <mxGeometry relative="1" as="geometry" />
        </mxCell>
        <mxCell id="bgv04-gCG5UVtlGr81CU-68" style="rounded=0;orthogonalLoop=1;jettySize=auto;html=1;strokeWidth=2;endArrow=none;endFill=0;" edge="1" parent="1" source="bgv04-gCG5UVtlGr81CU-69" target="bgv04-gCG5UVtlGr81CU-71">
          <mxGeometry relative="1" as="geometry" />
        </mxCell>
        <mxCell id="bgv04-gCG5UVtlGr81CU-69" value="J" style="ellipse;whiteSpace=wrap;html=1;aspect=fixed;fontStyle=1;strokeWidth=2;fontFamily=Comic Sans MS;" vertex="1" parent="1">
          <mxGeometry x="2560" y="1600" width="40" height="40" as="geometry" />
        </mxCell>
        <mxCell id="bgv04-gCG5UVtlGr81CU-70" style="rounded=0;orthogonalLoop=1;jettySize=auto;html=1;strokeWidth=2;endArrow=none;endFill=0;" edge="1" parent="1" source="bgv04-gCG5UVtlGr81CU-71" target="bgv04-gCG5UVtlGr81CU-61">
          <mxGeometry relative="1" as="geometry" />
        </mxCell>
        <mxCell id="bgv04-gCG5UVtlGr81CU-71" value="M" style="ellipse;whiteSpace=wrap;html=1;aspect=fixed;fontStyle=1;strokeWidth=2;fontFamily=Comic Sans MS;" vertex="1" parent="1">
          <mxGeometry x="2680" y="1660" width="40" height="40" as="geometry" />
        </mxCell>
        <mxCell id="bgv04-gCG5UVtlGr81CU-72" value="I" style="ellipse;whiteSpace=wrap;html=1;aspect=fixed;fontStyle=1;strokeWidth=2;fontFamily=Comic Sans MS;" vertex="1" parent="1">
          <mxGeometry x="2420" y="1780" width="40" height="40" as="geometry" />
        </mxCell>
        <mxCell id="bgv04-gCG5UVtlGr81CU-73" style="rounded=0;orthogonalLoop=1;jettySize=auto;html=1;strokeWidth=2;endArrow=none;endFill=0;" edge="1" parent="1" source="bgv04-gCG5UVtlGr81CU-75" target="bgv04-gCG5UVtlGr81CU-72">
          <mxGeometry relative="1" as="geometry" />
        </mxCell>
        <mxCell id="bgv04-gCG5UVtlGr81CU-74" style="rounded=0;orthogonalLoop=1;jettySize=auto;html=1;endArrow=none;endFill=0;strokeWidth=2;" edge="1" parent="1" source="bgv04-gCG5UVtlGr81CU-75" target="bgv04-gCG5UVtlGr81CU-76">
          <mxGeometry relative="1" as="geometry" />
        </mxCell>
        <mxCell id="bgv04-gCG5UVtlGr81CU-75" value="G" style="ellipse;whiteSpace=wrap;html=1;aspect=fixed;fontStyle=1;strokeWidth=2;fontFamily=Comic Sans MS;" vertex="1" parent="1">
          <mxGeometry x="2480" y="1720" width="40" height="40" as="geometry" />
        </mxCell>
        <mxCell id="bgv04-gCG5UVtlGr81CU-76" value="H" style="ellipse;whiteSpace=wrap;html=1;aspect=fixed;fontStyle=1;strokeWidth=2;fontFamily=Comic Sans MS;" vertex="1" parent="1">
          <mxGeometry x="2540" y="1720" width="40" height="40" as="geometry" />
        </mxCell>
        <mxCell id="bgv04-gCG5UVtlGr81CU-77" style="rounded=0;orthogonalLoop=1;jettySize=auto;html=1;strokeWidth=2;endArrow=none;endFill=0;" edge="1" parent="1" source="bgv04-gCG5UVtlGr81CU-79" target="bgv04-gCG5UVtlGr81CU-75">
          <mxGeometry relative="1" as="geometry" />
        </mxCell>
        <mxCell id="bgv04-gCG5UVtlGr81CU-78" style="rounded=0;orthogonalLoop=1;jettySize=auto;html=1;endArrow=none;endFill=0;strokeWidth=2;" edge="1" parent="1" source="bgv04-gCG5UVtlGr81CU-79" target="bgv04-gCG5UVtlGr81CU-76">
          <mxGeometry relative="1" as="geometry" />
        </mxCell>
        <mxCell id="bgv04-gCG5UVtlGr81CU-79" value="K" style="ellipse;whiteSpace=wrap;html=1;aspect=fixed;fontStyle=1;strokeWidth=2;fontFamily=Comic Sans MS;" vertex="1" parent="1">
          <mxGeometry x="2540" y="1780" width="40" height="40" as="geometry" />
        </mxCell>
        <mxCell id="bgv04-gCG5UVtlGr81CU-80" value="连通分量1" style="text;html=1;align=center;verticalAlign=middle;resizable=0;points=[];autosize=1;strokeColor=none;fillColor=none;fontFamily=Comic Sans MS;fontStyle=1" vertex="1" parent="1">
          <mxGeometry x="2575" y="1530" width="80" height="30" as="geometry" />
        </mxCell>
        <mxCell id="bgv04-gCG5UVtlGr81CU-81" value="连通分量2" style="text;html=1;align=center;verticalAlign=middle;resizable=0;points=[];autosize=1;strokeColor=none;fillColor=none;fontFamily=Comic Sans MS;fontStyle=1" vertex="1" parent="1">
          <mxGeometry x="2250" y="1770" width="80" height="30" as="geometry" />
        </mxCell>
        <mxCell id="bgv04-gCG5UVtlGr81CU-82" value="连通分量3" style="text;html=1;align=center;verticalAlign=middle;resizable=0;points=[];autosize=1;strokeColor=none;fillColor=none;fontFamily=Comic Sans MS;fontStyle=1" vertex="1" parent="1">
          <mxGeometry x="2580" y="1760" width="80" height="30" as="geometry" />
        </mxCell>
        <mxCell id="bgv04-gCG5UVtlGr81CU-83" style="rounded=0;orthogonalLoop=1;jettySize=auto;html=1;strokeWidth=2;endArrow=none;endFill=0;" edge="1" parent="1" source="bgv04-gCG5UVtlGr81CU-84" target="bgv04-gCG5UVtlGr81CU-85">
          <mxGeometry relative="1" as="geometry" />
        </mxCell>
        <mxCell id="bgv04-gCG5UVtlGr81CU-84" value="D" style="ellipse;whiteSpace=wrap;html=1;aspect=fixed;fontStyle=1;strokeWidth=2;fontFamily=Comic Sans MS;" vertex="1" parent="1">
          <mxGeometry x="2240" y="1480" width="40" height="40" as="geometry" />
        </mxCell>
        <mxCell id="bgv04-gCG5UVtlGr81CU-85" value="E" style="ellipse;whiteSpace=wrap;html=1;aspect=fixed;fontStyle=1;strokeWidth=2;fontFamily=Comic Sans MS;" vertex="1" parent="1">
          <mxGeometry x="2300" y="1480" width="40" height="40" as="geometry" />
        </mxCell>
        <mxCell id="bgv04-gCG5UVtlGr81CU-86" style="rounded=0;orthogonalLoop=1;jettySize=auto;html=1;fontStyle=1;strokeWidth=2;fontFamily=Comic Sans MS;" edge="1" source="bgv04-gCG5UVtlGr81CU-90" target="bgv04-gCG5UVtlGr81CU-89" parent="1">
          <mxGeometry relative="1" as="geometry">
            <mxPoint x="2350" y="2260" as="targetPoint" />
          </mxGeometry>
        </mxCell>
        <mxCell id="bgv04-gCG5UVtlGr81CU-87" style="rounded=0;orthogonalLoop=1;jettySize=auto;html=1;fontStyle=1;strokeWidth=2;fontFamily=Comic Sans MS;" edge="1" source="bgv04-gCG5UVtlGr81CU-89" target="bgv04-gCG5UVtlGr81CU-93" parent="1">
          <mxGeometry relative="1" as="geometry" />
        </mxCell>
        <mxCell id="bgv04-gCG5UVtlGr81CU-89" value="D" style="ellipse;whiteSpace=wrap;html=1;aspect=fixed;fontStyle=1;strokeWidth=2;fontFamily=Comic Sans MS;" vertex="1" parent="1">
          <mxGeometry x="2360" y="2160" width="40" height="40" as="geometry" />
        </mxCell>
        <mxCell id="bgv04-gCG5UVtlGr81CU-90" value="C" style="ellipse;whiteSpace=wrap;html=1;aspect=fixed;fontStyle=1;strokeWidth=2;fontFamily=Comic Sans MS;" vertex="1" parent="1">
          <mxGeometry x="2205" y="2160" width="40" height="40" as="geometry" />
        </mxCell>
        <mxCell id="bgv04-gCG5UVtlGr81CU-91" style="rounded=0;orthogonalLoop=1;jettySize=auto;html=1;fontStyle=1;strokeWidth=2;fontFamily=Comic Sans MS;" edge="1" source="bgv04-gCG5UVtlGr81CU-93" target="bgv04-gCG5UVtlGr81CU-90" parent="1">
          <mxGeometry relative="1" as="geometry" />
        </mxCell>
        <mxCell id="bgv04-gCG5UVtlGr81CU-92" value="B" style="ellipse;whiteSpace=wrap;html=1;aspect=fixed;fontStyle=1;strokeWidth=2;fontFamily=Comic Sans MS;" vertex="1" parent="1">
          <mxGeometry x="2360" y="1990" width="40" height="40" as="geometry" />
        </mxCell>
        <mxCell id="bgv04-gCG5UVtlGr81CU-93" value="A" style="ellipse;whiteSpace=wrap;html=1;aspect=fixed;fontStyle=1;strokeWidth=2;fontFamily=Comic Sans MS;" vertex="1" parent="1">
          <mxGeometry x="2220" y="2010" width="40" height="40" as="geometry" />
        </mxCell>
        <mxCell id="bgv04-gCG5UVtlGr81CU-94" style="rounded=0;orthogonalLoop=1;jettySize=auto;html=1;fontStyle=1;strokeWidth=2;fontFamily=Comic Sans MS;" edge="1" source="bgv04-gCG5UVtlGr81CU-93" target="bgv04-gCG5UVtlGr81CU-92" parent="1">
          <mxGeometry relative="1" as="geometry" />
        </mxCell>
        <mxCell id="bgv04-gCG5UVtlGr81CU-98" value="有向图G" style="text;html=1;align=center;verticalAlign=middle;resizable=0;points=[];autosize=1;strokeColor=none;fillColor=none;fontFamily=Comic Sans MS;fontStyle=1" vertex="1" parent="1">
          <mxGeometry x="2245" y="2120" width="70" height="30" as="geometry" />
        </mxCell>
        <mxCell id="bgv04-gCG5UVtlGr81CU-99" value="强连通分量1" style="text;html=1;align=center;verticalAlign=middle;resizable=0;points=[];autosize=1;strokeColor=none;fillColor=none;fontFamily=Comic Sans MS;fontStyle=1" vertex="1" parent="1">
          <mxGeometry x="2480" y="2110" width="90" height="30" as="geometry" />
        </mxCell>
        <mxCell id="bgv04-gCG5UVtlGr81CU-100" value="强连通分量2" style="text;html=1;align=center;verticalAlign=middle;resizable=0;points=[];autosize=1;strokeColor=none;fillColor=none;fontFamily=Comic Sans MS;fontStyle=1" vertex="1" parent="1">
          <mxGeometry x="2635" y="2100" width="90" height="30" as="geometry" />
        </mxCell>
        <mxCell id="bgv04-gCG5UVtlGr81CU-101" style="rounded=0;orthogonalLoop=1;jettySize=auto;html=1;fontStyle=1;strokeWidth=2;fontFamily=Comic Sans MS;" edge="1" parent="1" source="bgv04-gCG5UVtlGr81CU-104" target="bgv04-gCG5UVtlGr81CU-103">
          <mxGeometry relative="1" as="geometry">
            <mxPoint x="2585" y="2250" as="targetPoint" />
          </mxGeometry>
        </mxCell>
        <mxCell id="bgv04-gCG5UVtlGr81CU-102" style="rounded=0;orthogonalLoop=1;jettySize=auto;html=1;fontStyle=1;strokeWidth=2;fontFamily=Comic Sans MS;" edge="1" parent="1" source="bgv04-gCG5UVtlGr81CU-103" target="bgv04-gCG5UVtlGr81CU-106">
          <mxGeometry relative="1" as="geometry" />
        </mxCell>
        <mxCell id="bgv04-gCG5UVtlGr81CU-103" value="D" style="ellipse;whiteSpace=wrap;html=1;aspect=fixed;fontStyle=1;strokeWidth=2;fontFamily=Comic Sans MS;" vertex="1" parent="1">
          <mxGeometry x="2595" y="2150" width="40" height="40" as="geometry" />
        </mxCell>
        <mxCell id="bgv04-gCG5UVtlGr81CU-104" value="C" style="ellipse;whiteSpace=wrap;html=1;aspect=fixed;fontStyle=1;strokeWidth=2;fontFamily=Comic Sans MS;" vertex="1" parent="1">
          <mxGeometry x="2440" y="2150" width="40" height="40" as="geometry" />
        </mxCell>
        <mxCell id="bgv04-gCG5UVtlGr81CU-105" style="rounded=0;orthogonalLoop=1;jettySize=auto;html=1;fontStyle=1;strokeWidth=2;fontFamily=Comic Sans MS;" edge="1" parent="1" source="bgv04-gCG5UVtlGr81CU-106" target="bgv04-gCG5UVtlGr81CU-104">
          <mxGeometry relative="1" as="geometry" />
        </mxCell>
        <mxCell id="bgv04-gCG5UVtlGr81CU-106" value="A" style="ellipse;whiteSpace=wrap;html=1;aspect=fixed;fontStyle=1;strokeWidth=2;fontFamily=Comic Sans MS;" vertex="1" parent="1">
          <mxGeometry x="2455" y="2000" width="40" height="40" as="geometry" />
        </mxCell>
        <mxCell id="bgv04-gCG5UVtlGr81CU-109" value="B" style="ellipse;whiteSpace=wrap;html=1;aspect=fixed;fontStyle=1;strokeWidth=2;fontFamily=Comic Sans MS;" vertex="1" parent="1">
          <mxGeometry x="2650" y="2050" width="40" height="40" as="geometry" />
        </mxCell>
      </root>
    </mxGraphModel>
  </diagram>
</mxfile>
